# xmcd
# Copyright (C) 1995-1998 Ti Kan
#
# Track frame offsets:
#       150
#       15437
#       24512
#       35762
#       45512
#       54662
#       64562
#       81887
#       94937
#       104912
#       115712
#       125612
#       137537
#       153437
#
# Disc length: 2244 seconds
#
# Revision: 0
# Processed by: cddbd v1.5.1PL0 Copyright (c) Steve Scherf et al.
# Submitted via: CD-Transfer v1.0
#
DISCID=b608c20e
DTITLE=The Saltbee - 
DYEAR=1900
DGENRE=
TTITLE0=That means a lot
TTITLE1=Love of the loved
TTITLE2=I'll keep you satisfied
TTITLE3=I'll be on my way
TTITLE4=Bad to me
TTITLE5=It's for you
TTITLE6=One and one is two
TTITLE7=World without love
TTITLE8=I don't want to see you again
TTITLE9=Tip of my tongue
TTITLE10=From a window
TTITLE11=Nobody I know
TTITLE12=I'm in love
TTITLE13=Come and get it
EXTD=
EXTT0=
EXTT1=
EXTT2=
EXTT3=
EXTT4=
EXTT5=
EXTT6=
EXTT7=
EXTT8=
EXTT9=
EXTT10=
EXTT11=
EXTT12=
EXTT13=
PLAYORDER=
